<mxfile host="65bd71144e" scale="3" border="0">
    <diagram id="EmQ0g2szqeyNfGZpV2F3" name="Page-1">
        <mxGraphModel dx="490" dy="485" grid="1" gridSize="10" guides="1" tooltips="1" connect="1" arrows="1" fold="1" page="1" pageScale="1" pageWidth="583" pageHeight="827" math="0" shadow="0">
            <root>
                <mxCell id="0"/>
                <mxCell id="1" parent="0"/>
                <mxCell id="3" value="" style="verticalLabelPosition=bottom;shadow=0;dashed=0;align=center;html=1;verticalAlign=top;shape=mxgraph.electrical.radio.aerial_-_antenna_1;fillColor=none;" vertex="1" parent="1">
                    <mxGeometry x="272" y="240" width="16" height="20" as="geometry"/>
                </mxCell>
                <mxCell id="4" value="" style="verticalLabelPosition=bottom;shadow=0;dashed=0;align=center;html=1;verticalAlign=top;shape=mxgraph.electrical.radio.aerial_-_antenna_1;fillColor=none;" vertex="1" parent="1">
                    <mxGeometry x="292" y="240" width="16" height="20" as="geometry"/>
                </mxCell>
                <mxCell id="6" value="" style="verticalLabelPosition=bottom;shadow=0;dashed=0;align=center;html=1;verticalAlign=top;shape=mxgraph.electrical.radio.aerial_-_antenna_1;fillColor=none;" vertex="1" parent="1">
                    <mxGeometry x="312" y="240" width="16" height="20" as="geometry"/>
                </mxCell>
                <mxCell id="7" value="" style="verticalLabelPosition=bottom;shadow=0;dashed=0;align=center;html=1;verticalAlign=top;shape=mxgraph.electrical.radio.aerial_-_antenna_1;fillColor=none;" vertex="1" parent="1">
                    <mxGeometry x="332" y="240" width="16" height="20" as="geometry"/>
                </mxCell>
                <mxCell id="8" value="" style="verticalLabelPosition=bottom;shadow=0;dashed=0;align=center;html=1;verticalAlign=top;shape=mxgraph.electrical.radio.aerial_-_antenna_1;fillColor=none;" vertex="1" parent="1">
                    <mxGeometry x="352" y="240" width="16" height="20" as="geometry"/>
                </mxCell>
                <mxCell id="9" value="" style="verticalLabelPosition=bottom;shadow=0;dashed=0;align=center;html=1;verticalAlign=top;shape=mxgraph.electrical.radio.aerial_-_antenna_1;fillColor=none;" vertex="1" parent="1">
                    <mxGeometry x="392" y="240" width="16" height="20" as="geometry"/>
                </mxCell>
                <mxCell id="10" value="" style="verticalLabelPosition=bottom;shadow=0;dashed=0;align=center;html=1;verticalAlign=top;shape=mxgraph.electrical.radio.aerial_-_antenna_1;fillColor=none;" vertex="1" parent="1">
                    <mxGeometry x="372" y="240" width="16" height="20" as="geometry"/>
                </mxCell>
                <mxCell id="25" value="" style="group;rotation=-3;" vertex="1" connectable="0" parent="1">
                    <mxGeometry x="240" y="100" width="135" height="166" as="geometry"/>
                </mxCell>
                <mxCell id="11" value="" style="verticalLabelPosition=bottom;verticalAlign=top;html=1;shape=mxgraph.basic.arc;startAngle=0.8348350134713375;endAngle=0.06722492108655141;fillColor=none;rotation=-3;" vertex="1" parent="25">
                    <mxGeometry x="82" y="124" width="40" height="40" as="geometry"/>
                </mxCell>
                <mxCell id="12" value="" style="verticalLabelPosition=bottom;verticalAlign=top;html=1;shape=mxgraph.basic.arc;startAngle=0.8348350134713375;endAngle=0.059986973469354686;fillColor=none;rotation=-3;" vertex="1" parent="25">
                    <mxGeometry x="75" y="114" width="50" height="50" as="geometry"/>
                </mxCell>
                <mxCell id="13" value="" style="verticalLabelPosition=bottom;verticalAlign=top;html=1;shape=mxgraph.basic.arc;startAngle=0.8348350134713375;endAngle=0.06319715650774343;fillColor=none;rotation=-3;" vertex="1" parent="25">
                    <mxGeometry x="68" y="104" width="60" height="60" as="geometry"/>
                </mxCell>
                <mxCell id="14" value="" style="verticalLabelPosition=bottom;verticalAlign=top;html=1;shape=mxgraph.basic.arc;startAngle=0.8348350134713375;endAngle=0.0625923613305674;fillColor=none;rotation=-3;" vertex="1" parent="25">
                    <mxGeometry x="60" y="94" width="70" height="70" as="geometry"/>
                </mxCell>
                <mxCell id="15" value="" style="verticalLabelPosition=bottom;verticalAlign=top;html=1;shape=mxgraph.basic.arc;startAngle=0.8348350134713375;endAngle=0.06173619569753766;fillColor=none;rotation=-3;" vertex="1" parent="25">
                    <mxGeometry x="54" y="83" width="80" height="80" as="geometry"/>
                </mxCell>
                <mxCell id="16" value="" style="verticalLabelPosition=bottom;verticalAlign=top;html=1;shape=mxgraph.basic.arc;startAngle=0.8348350134713375;endAngle=0.06527379354431137;fillColor=none;rotation=-3;" vertex="1" parent="25">
                    <mxGeometry x="45" y="73" width="90" height="90" as="geometry"/>
                </mxCell>
                <mxCell id="17" value="" style="verticalLabelPosition=bottom;verticalAlign=top;html=1;shape=mxgraph.basic.arc;startAngle=0.8348350134713375;endAngle=0.06722492108655141;fillColor=none;rotation=-3;" vertex="1" parent="25">
                    <mxGeometry x="37" y="61" width="100" height="100" as="geometry"/>
                </mxCell>
                <mxCell id="18" value="" style="endArrow=none;html=1;dashed=1;dashPattern=12 12;" edge="1" parent="25">
                    <mxGeometry width="50" height="50" relative="1" as="geometry">
                        <mxPoint x="84" y="135" as="sourcePoint"/>
                        <mxPoint x="-2" y="38" as="targetPoint"/>
                    </mxGeometry>
                </mxCell>
                <mxCell id="19" value="" style="endArrow=none;html=1;dashed=1;dashPattern=12 12;" edge="1" parent="25">
                    <mxGeometry width="50" height="50" relative="1" as="geometry">
                        <mxPoint x="110" y="125" as="sourcePoint"/>
                        <mxPoint x="99" y="-2" as="targetPoint"/>
                    </mxGeometry>
                </mxCell>
            </root>
        </mxGraphModel>
    </diagram>
</mxfile>